<?xml version="1.0" standalone="no"?>
<!DOCTYPE svg PUBLIC "-//W3C//DTD SVG 20010904//EN"
 "http://www.w3.org/TR/2001/REC-SVG-20010904/DTD/svg10.dtd">
<svg version="1.0" xmlns="http://www.w3.org/2000/svg"
 width="700.000000pt" height="700.000000pt" viewBox="0 0 700.000000 700.000000"
 preserveAspectRatio="xMidYMid meet">
<metadata>
Created by potrace 1.11, written by Peter Selinger 2001-2013
</metadata>
<g transform="translate(0.000000,700.000000) scale(0.100000,-0.100000)"
fill="#000000" stroke="none">
<path d="M984 6969 c-248 -130 -440 -442 -599 -974 -15 -49 -28 -96 -30 -105
-2 -8 -12 -53 -24 -100 -22 -95 -56 -256 -65 -310 -3 -19 -8 -46 -11 -60 -5
-27 -34 -214 -41 -270 -2 -19 -6 -51 -9 -70 -2 -19 -7 -60 -10 -90 -4 -30 -8
-66 -10 -80 -2 -14 -7 -63 -10 -110 -4 -47 -8 -101 -10 -120 -3 -33 -13 -179
-20 -295 -25 -410 -25 -1328 0 -1620 2 -27 7 -99 11 -160 10 -172 16 -235 39
-442 19 -163 25 -215 30 -233 2 -8 7 -37 10 -65 4 -27 9 -59 10 -70 12 -85 73
-378 106 -505 61 -239 120 -408 204 -585 46 -98 127 -242 144 -255 3 -3 18
-21 32 -40 142 -190 333 -292 536 -285 396 14 700 440 894 1253 16 67 31 137
34 155 3 17 8 39 10 47 2 8 7 31 10 50 7 44 16 99 21 125 11 57 45 282 49 323
2 26 7 70 10 97 4 28 8 66 10 85 3 19 7 67 10 105 4 39 8 90 10 115 4 43 9
114 20 280 12 190 18 447 18 825 0 428 -8 695 -28 960 -4 44 -8 105 -10 135
-8 98 -41 410 -50 470 -2 14 -7 45 -10 70 -9 73 -55 341 -66 390 -6 25 -13 56
-15 70 -6 33 -53 227 -64 265 -47 155 -99 307 -132 390 -133 325 -294 537
-483 634 l-59 31 -202 0 -202 0 -58 -31z m337 -1194 c75 -26 159 -121 219
-250 56 -122 124 -366 154 -560 3 -16 7 -43 10 -60 5 -28 11 -75 21 -155 8
-64 24 -214 30 -290 3 -41 8 -97 10 -125 29 -360 24 -1265 -9 -1632 -3 -35 -9
-93 -12 -130 -3 -38 -7 -79 -9 -93 -2 -14 -7 -50 -10 -80 -6 -54 -30 -211 -40
-260 -3 -14 -9 -47 -15 -75 -6 -27 -12 -59 -14 -70 -30 -152 -106 -361 -169
-460 -119 -187 -286 -219 -421 -79 -49 50 -57 62 -104 159 -69 139 -131 359
-167 585 -15 91 -44 327 -49 388 -3 40 -8 94 -11 120 -32 290 -38 1279 -10
1612 2 25 7 81 10 125 3 44 8 96 10 115 2 19 7 64 10 100 5 56 23 184 41 310
3 19 17 87 30 150 104 496 280 728 495 655z"/>
<path d="M2790 3584 l0 -3332 518 3 c284 1 532 5 550 9 318 69 524 346 635
856 23 104 29 138 43 250 2 19 6 51 9 70 12 88 15 130 31 370 12 192 6 655
-11 855 -10 112 -17 180 -20 205 -3 14 -7 45 -10 70 -43 354 -162 697 -290
835 -33 35 -35 42 -24 60 61 95 91 153 122 230 32 82 78 247 92 335 3 19 8 49
12 65 3 17 7 41 8 55 5 52 17 146 20 169 23 138 22 752 0 981 -21 212 -22 220
-41 335 -10 66 -26 143 -41 195 -121 449 -309 654 -648 707 -16 3 -238 6 -493
6 l-462 2 0 -3331z m945 2144 c89 -47 160 -200 180 -388 3 -30 7 -71 10 -90 5
-41 6 -359 1 -410 -26 -276 -82 -426 -181 -481 -37 -21 -52 -23 -215 -24
l-175 0 -3 699 c-1 448 1 702 8 706 5 3 85 5 177 5 132 -1 174 -5 198 -17z
m37 -2580 c122 -54 205 -240 236 -533 15 -142 7 -628 -11 -720 -3 -11 -8 -42
-12 -70 -11 -84 -64 -227 -104 -285 -22 -32 -58 -68 -86 -85 l-48 -30 -199 -3
-198 -3 0 875 0 874 193 -2 c151 -2 200 -6 229 -18z"/>
<path d="M5615 6910 c-2 -3 -6 -33 -10 -65 -4 -33 -8 -71 -10 -85 -2 -14 -6
-50 -10 -80 -3 -30 -8 -71 -10 -90 -3 -19 -12 -93 -20 -165 -9 -71 -18 -141
-20 -155 -2 -14 -6 -52 -10 -85 -6 -65 -14 -135 -21 -175 -2 -14 -6 -50 -9
-80 -3 -30 -10 -86 -15 -125 -5 -38 -12 -91 -15 -117 -3 -26 -7 -62 -10 -80
-4 -31 -11 -90 -19 -163 -6 -52 -16 -135 -36 -295 -10 -85 -22 -180 -25 -210
-7 -55 -10 -79 -19 -155 -14 -109 -38 -305 -41 -340 -8 -66 -16 -138 -20 -165
-2 -14 -6 -50 -10 -80 -3 -30 -10 -91 -16 -135 -5 -44 -12 -96 -14 -115 -2
-19 -9 -71 -14 -115 -15 -122 -20 -165 -26 -220 -4 -27 -8 -61 -10 -75 -2 -14
-7 -50 -10 -80 -3 -30 -10 -86 -15 -125 -5 -38 -12 -95 -15 -125 -3 -30 -12
-107 -20 -170 -20 -154 -28 -227 -40 -325 -3 -27 -7 -66 -10 -85 -2 -19 -7
-60 -10 -90 -3 -30 -8 -66 -11 -80 -4 -24 -6 -41 -19 -165 -3 -27 -8 -61 -10
-75 -2 -14 -7 -47 -10 -75 -3 -27 -7 -66 -10 -85 -3 -19 -12 -96 -20 -170 -8
-74 -18 -153 -21 -175 -11 -90 -14 -112 -19 -160 -3 -27 -8 -66 -10 -85 -3
-19 -14 -111 -25 -205 -11 -93 -23 -186 -25 -206 -3 -20 -8 -56 -10 -80 -2
-24 -7 -60 -9 -79 -3 -19 -8 -60 -11 -90 -4 -30 -8 -62 -10 -70 -2 -8 -6 -42
-10 -75 -3 -33 -7 -76 -10 -95 -2 -19 -7 -60 -11 -90 -3 -30 -8 -66 -9 -80 -2
-14 -7 -53 -10 -87 l-7 -61 281 0 c232 0 281 3 282 14 1 8 2 17 3 22 1 4 6 39
10 77 9 76 14 121 20 175 3 19 8 60 11 90 3 30 8 71 10 90 3 19 7 62 10 95 3
33 8 71 10 85 4 26 23 193 31 270 2 25 6 61 9 80 8 63 20 168 24 206 1 7 139
10 441 10 437 0 440 0 441 -21 0 -11 2 -29 4 -40 2 -11 7 -45 10 -75 3 -30 7
-68 9 -85 2 -16 7 -59 11 -95 4 -36 8 -76 10 -90 4 -27 11 -94 20 -180 4 -30
8 -66 10 -80 2 -14 7 -54 10 -90 3 -36 8 -76 10 -90 2 -14 6 -54 10 -90 4 -36
9 -78 11 -95 2 -16 6 -57 9 -90 10 -103 -15 -94 248 -92 l232 2 3 365 c3 323
-2 444 -23 600 -2 14 -6 50 -10 80 -4 30 -8 66 -10 80 -2 14 -7 48 -10 75 -12
106 -16 141 -20 175 -3 19 -7 53 -9 75 -3 22 -10 76 -15 120 -6 44 -13 100
-15 125 -8 64 -15 130 -21 170 -3 19 -7 58 -10 85 -7 63 -44 370 -60 495 -3
25 -8 62 -10 83 -3 20 -7 54 -10 75 -3 20 -7 55 -10 77 -11 102 -26 223 -30
255 -2 19 -7 58 -10 85 -3 28 -7 61 -10 75 -2 14 -7 52 -10 85 -3 33 -8 74
-10 90 -5 37 -15 119 -21 165 -12 102 -16 137 -19 160 -2 14 -7 52 -10 85 -3
33 -8 71 -10 85 -4 26 -10 80 -20 165 -3 28 -8 68 -11 90 -10 75 -12 90 -19
150 -4 33 -8 74 -10 90 -2 17 -7 53 -10 80 -3 28 -8 61 -10 75 -2 14 -7 52
-10 85 -3 33 -8 74 -10 90 -2 17 -6 50 -9 75 -19 164 -40 337 -51 418 -6 42
-11 84 -20 162 -6 59 -7 61 -30 250 -8 69 -17 143 -20 165 -2 22 -7 60 -10 85
-3 25 -7 61 -10 80 -3 19 -7 58 -10 85 -3 28 -7 66 -10 85 -2 19 -11 94 -20
165 -9 72 -18 144 -20 160 -2 17 -6 53 -10 80 -3 28 -8 66 -11 85 -3 19 -7 62
-10 95 -3 33 -10 64 -15 70 -9 9 -658 14 -664 5z m342 -1612 c1 -23 14 -152
19 -178 2 -14 6 -54 9 -90 4 -36 8 -72 10 -80 2 -8 7 -51 11 -95 3 -44 7 -82
9 -85 2 -3 6 -46 10 -95 4 -50 9 -93 11 -96 2 -3 6 -35 9 -70 3 -35 8 -82 10
-104 3 -22 8 -60 11 -85 3 -25 7 -58 9 -75 2 -16 7 -61 10 -100 4 -38 9 -77
10 -85 2 -8 6 -46 10 -85 6 -70 9 -95 19 -170 3 -22 8 -67 11 -100 3 -33 8
-73 10 -90 2 -16 7 -57 10 -90 3 -33 8 -73 10 -90 4 -30 15 -128 20 -175 3
-32 16 -146 21 -185 2 -16 6 -59 10 -95 3 -36 7 -72 9 -80 2 -8 6 -49 10 -90
4 -41 9 -82 10 -91 3 -15 -25 -16 -296 -16 l-299 0 5 41 c4 37 9 81 20 176 2
19 6 53 9 75 3 22 8 67 11 100 3 33 8 71 10 85 2 14 6 55 10 92 3 37 7 75 9
85 2 10 7 52 11 93 4 41 8 82 10 90 2 8 6 47 9 85 4 39 9 81 11 95 5 37 13
106 21 185 3 39 8 79 10 90 4 19 8 60 19 168 3 28 8 66 10 82 3 17 7 55 10 86
3 31 7 72 9 90 6 42 13 106 21 184 3 33 8 71 10 85 3 14 7 57 10 95 4 39 8 77
10 85 3 8 7 44 10 80 12 124 13 135 20 194 4 33 9 67 10 75 2 9 4 33 4 54 1
20 5 37 9 37 5 0 9 -6 9 -12z"/>
</g>
</svg>
